<?xml version="1.0" standalone="no"?>
<!DOCTYPE svg PUBLIC "-//W3C//DTD SVG 1.1//EN" "http://www.w3.org/Graphics/SVG/1.1/DTD/svg11.dtd" >
<svg xmlns="http://www.w3.org/2000/svg">
<metadata>
This is a custom SVG webfont generated by Font Squirrel.
Copyright   : 251 Dutch Design AlbertJan Pool 1995 Published by FontShop International FontFont release 15
</metadata>
<defs>
<font id="webfontf23i6Xb7" horiz-adv-x="1052" >
<font-face units-per-em="2048" ascent="1638" descent="-410" />
<missing-glyph horiz-adv-x="522" />
<glyph unicode=" "  horiz-adv-x="522" />
<glyph unicode="&#x09;" horiz-adv-x="522" />
<glyph unicode="&#xa0;" horiz-adv-x="522" />
<glyph unicode="!" horiz-adv-x="622" d="M397 1458h-112l6 -1065h100zM410 0v137h-138v-137h138z" />
<glyph unicode="&#x22;" horiz-adv-x="835" d="M641 1139v319h-129v-319h129zM324 1139v319h-129v-319h129z" />
<glyph unicode="#" horiz-adv-x="1308" d="M1204 895v92h-192l73 471h-102l-74 -471h-358l76 471h-107l-74 -471h-215v-92h203l-51 -313h-211v-90h197l-78 -492h104l76 492h360l-79 -492h104l78 492h211v90h-197l51 313h205zM895 895l-51 -313h-359l52 313h358z" />
<glyph unicode="$" horiz-adv-x="1202" d="M1081 391q0 88 -33.5 161t-93.5 122q-23 18 -47 32.5t-54 25.5t-69 20l-90 18l-59 10v594q104 -8 173 -44t128 -89l72 72q-86 74 -171 111.5t-202 43.5v183h-92v-183q-190 -12 -299 -117.5t-109 -279.5q0 -170 115 -268q41 -35 110.5 -65.5t149.5 -41.5l33 -4v-604 q-55 2 -101.5 13.5t-89.5 31t-85 51t-85 74.5l-78 -78q94 -94 194.5 -140t244.5 -52v-221h92v223q209 10 327.5 117.5t118.5 283.5zM543 795q-57 8 -115.5 28.5t-108.5 61.5q-76 63 -75 190q0 129 78.5 209t220.5 90v-579zM971 387q0 -135 -90 -212t-246 -87v588 q37 -6 70.5 -10t65.5 -12.5t61.5 -23t58.5 -38.5q80 -72 80 -205z" />
<glyph unicode="%" horiz-adv-x="1695" d="M1554 260v219q0 123 -74.5 199t-193.5 76q-121 0 -195.5 -76t-74.5 -199v-219q0 -123 74.5 -198.5t195.5 -75.5q119 0 193.5 75.5t74.5 198.5zM1235 1458h-92l-680 -1458h92zM680 979v219q0 123 -75 199t-193 76q-121 0 -196 -76t-75 -199v-219q0 -121 75 -196.5 t196 -75.5q119 0 193.5 75.5t74.5 196.5zM1464 264q0 -92 -41 -146.5t-137 -54.5t-138 54.5t-42 146.5v211q0 92 42 146.5t138 54.5t137 -54.5t41 -146.5v-211zM590 983q0 -92 -42 -145.5t-136 -53.5q-96 0 -138.5 53.5t-42.5 145.5v211q0 92 42 146.5t139 54.5 q96 0 137 -54.5t41 -146.5v-211z" />
<glyph unicode="&#x26;" horiz-adv-x="1527" d="M1356 0l-209 254q70 86 98.5 196.5t28.5 247.5h-109q0 -70 -4 -121t-14 -93t-26.5 -76.5t-41.5 -71.5l-417 506l43 28l45 31q18 12 20 14q70 47 119 109.5t49 153.5q0 61 -23.5 114.5t-63.5 93t-94.5 62t-115.5 22.5t-115.5 -22.5t-94.5 -61t-63.5 -92t-23.5 -114.5 q0 -47 14.5 -91.5t37 -84t51.5 -76.5l59 -72q-66 -43 -125 -87t-106.5 -96t-75 -118t-27.5 -152q0 -92 33 -168.5t93 -132t143 -85t184 -29.5q90 0 163.5 21.5t130 50t94.5 60.5l60 52l141 -172h142zM829 1178q0 -72 -45 -119t-102 -86q-2 -2 -15 -11l-35 -24l-34 -23 q-43 51 -70.5 89t-44 69t-22.5 56.5t-6 54.5q0 82 53 135t133 53t134 -55t54 -139zM1012 248q-111 -98 -206 -130t-183 -32q-76 0 -138.5 23.5t-107.5 66.5t-69.5 102.5t-24.5 131.5q0 70 25.5 124t66.5 97t92 80l102 71z" />
<glyph unicode="'" horiz-adv-x="518" d="M324 1139v319h-129v-319h129z" />
<glyph unicode="(" horiz-adv-x="581" d="M444 -121l-63 65q-29 30 -47 68q-31 63 -31 162v1110q0 96 31 162q18 39 47 68l63 65l-71 72q-47 -47 -79 -82t-56 -82q-25 -47 -32 -94t-7 -97v-1134q0 -49 7 -96.5t32 -94.5t56.5 -81.5l78.5 -82.5z" />
<glyph unicode=")" horiz-adv-x="581" d="M383 162v1134q0 49 -6 96.5t-33 94.5q-25 47 -56.5 82t-78.5 82l-76 -76l64 -65q29 -30 47 -68q16 -33 22 -72t6 -86v-1110q0 -47 -6 -86t-22 -72q-18 -39 -47 -68l-64 -65l76 -76q47 47 78.5 82t56.5 82q27 47 33 94.5t6 96.5z" />
<glyph unicode="*" horiz-adv-x="956" d="M809 975l-252 139l252 139l-45 78l-246 -149l6 288h-92l6 -288l-245 149l-46 -78l252 -139l-252 -139l46 -78l245 150l-6 -289h92l-6 289l246 -150z" />
<glyph unicode="+" d="M944 492v96h-369v368h-96v-368h-370v-96h370v-371h96v371h369z" />
<glyph unicode="," horiz-adv-x="528" d="M334 -139v278h-139v-418z" />
<glyph unicode="-" horiz-adv-x="872" d="M705 492v96h-537v-96h537z" />
<glyph unicode="." horiz-adv-x="540" d="M346 0v152h-151v-152h151z" />
<glyph unicode="/" horiz-adv-x="692" d="M692 1610h-108l-584 -1762h109z" />
<glyph unicode="0" d="M909 377v704q0 86 -28.5 157t-78.5 123t-121 80.5t-155 28.5t-154.5 -28.5t-121.5 -80.5t-79 -123t-28 -157v-704q0 -86 28 -156.5t79 -123t121.5 -81t154.5 -28.5t155 28.5t121 81t78.5 123t28.5 156.5zM805 387q0 -66 -17.5 -121t-53.5 -97t-88 -65.5t-120 -23.5 t-120 23.5t-87.5 65.5t-53 97.5t-17.5 120.5v684q0 63 17.5 119.5t53 98.5t88 65.5t119.5 23.5q68 0 120 -23.5t88 -65.5t53.5 -98t17.5 -120v-684z" />
<glyph unicode="1" d="M641 0v1458h-104l-265 -227v-125l265 233v-1339h104z" />
<glyph unicode="2" d="M920 0v92h-648l547 715q55 72 78 135.5t23 144.5q0 86 -28 157t-78 121t-120.5 77.5t-158.5 27.5q-90 0 -162 -29.5t-121 -80.5t-75.5 -121t-26.5 -152h104q0 76 22.5 131.5t60.5 91.5t89 52t109 16q133 0 206.5 -79.5t73.5 -211.5q0 -63 -19.5 -117.5t-62.5 -109.5 l-586 -768v-92h773z" />
<glyph unicode="3" d="M915 389q0 139 -56 231.5t-179 133.5q111 47 159 131t48 200q0 88 -29 159t-79 122t-121.5 79t-157.5 28q-160 0 -269.5 -93.5t-126.5 -265.5h105q14 123 88 194.5t203 71.5q59 0 110.5 -19.5t90 -56t60 -92t21.5 -127.5q0 -141 -70.5 -216.5t-217.5 -75.5h-25v-93h25 q168 0 242.5 -81.5t74.5 -229.5q0 -74 -23.5 -131t-65.5 -97t-98.5 -61.5t-121.5 -21.5q-57 0 -110.5 15.5t-96.5 48t-70.5 86t-34.5 126.5h-104q6 -94 39 -163.5t88 -114.5t129 -67.5t160 -22.5q88 0 163.5 26.5t131 77.5t87 126t31.5 173z" />
<glyph unicode="4" d="M965 240v92h-195v463h-104v-463h-467l536 1126h-110l-537 -1126v-92h578v-240h104v240h195z" />
<glyph unicode="5" d="M924 477q0 51 -4.5 104.5t-16.5 104.5t-35.5 98t-62.5 86q-88 88 -246 88q-182 0 -276 -108v516h608v92h-701v-745h93q23 74 93 113.5t171 39.5q90 0 143 -34.5t82 -91t38 -126t9 -137.5q0 -41 -2 -85t-10 -87t-25.5 -82t-50.5 -71q-35 -35 -88 -54.5t-113 -19.5 q-129 0 -193.5 63.5t-80.5 180.5h-104q12 -152 98 -238q47 -49 118.5 -73.5t161.5 -24.5q176 0 281 104q39 39 61.5 85t34 95t14.5 101.5t3 105.5z" />
<glyph unicode="6" d="M918 412q0 86 -26 159.5t-74 129t-117.5 87t-159.5 31.5q-96 0 -170 -35l336 674h-105l-375 -756q-45 -92 -63.5 -162.5t-18.5 -142.5q0 -90 26 -164.5t76 -129t121.5 -85t163.5 -30.5t164 33.5t121 91t75 134.5t26 165zM813 403q0 -147 -77 -235t-206 -88t-204.5 88 t-75.5 235t75.5 235.5t204.5 88.5q70 0 123.5 -25.5t88 -70.5t53 -103.5t18.5 -124.5z" />
<glyph unicode="7" d="M940 1366v92h-764v-321h105v229h553l-517 -1366h107z" />
<glyph unicode="8" d="M942 393q0 127 -62.5 218t-166.5 147q199 106 198 332q0 80 -28.5 149.5t-78.5 120.5t-121 80.5t-157 29.5t-156.5 -29.5t-120.5 -80.5t-79 -121t-29 -149q0 -113 51.5 -196t149.5 -136q-104 -55 -167.5 -146.5t-63.5 -218.5q0 -88 31.5 -161.5t88 -128t132 -85 t163.5 -30.5t164 30.5t132.5 85t88 128t31.5 161.5zM807 1090q0 -63 -20.5 -116.5t-57.5 -91.5t-89 -59.5t-114 -21.5q-61 0 -113.5 21.5t-89 59.5t-57 91t-20.5 117q0 63 20.5 115t57 91t89 60.5t113.5 21.5t113.5 -21.5t89.5 -60.5t57.5 -91t20.5 -115zM838 393 q0 -68 -23.5 -125t-65.5 -99t-99.5 -65.5t-123.5 -23.5t-123 23.5t-99 65.5t-65.5 99.5t-23.5 124.5q0 68 23.5 125t65.5 99t99.5 67t122.5 25q66 0 123.5 -25t99.5 -67t65.5 -99t23.5 -125z" />
<glyph unicode="9" d="M907 1061q0 88 -25.5 163.5t-75.5 130t-122 85t-164 30.5t-163.5 -33.5t-121 -91t-75 -134t-25.5 -164.5q0 -86 24.5 -160t73 -129.5t118 -87t159.5 -31.5q98 0 172 35l-336 -674h105l374 756q45 92 63.5 162.5t18.5 142.5zM803 1055q0 -147 -77 -235.5t-206 -88.5 q-70 0 -122 25.5t-88 70.5t-53 103.5t-17 124.5q0 147 75.5 235t204.5 88t206 -88t77 -235z" />
<glyph unicode=":" horiz-adv-x="598" d="M403 639v152h-151v-152h151zM403 0v152h-151v-152h151z" />
<glyph unicode=";" horiz-adv-x="598" d="M403 639v152h-151v-152h151zM395 -139v278h-139v-418z" />
<glyph unicode="&#x3c;" horiz-adv-x="2103" d="M1987 487v103h-1678l776 776h-141l-827 -827l827 -828h141l-776 776h1678z" />
<glyph unicode="=" d="M944 647v96h-835v-96h835zM944 334v96h-835v-96h835z" />
<glyph unicode="&#x3e;" horiz-adv-x="2103" d="M1987 539l-828 827h-141l776 -776h-1677v-103h1677l-776 -776h141z" />
<glyph unicode="?" horiz-adv-x="999" d="M897 1110q0 76 -27.5 142.5t-77 114.5t-117 75.5t-145.5 27.5q-82 0 -149.5 -28.5t-115.5 -77.5t-74.5 -114.5t-26.5 -139.5h104q0 53 18.5 102.5t52.5 86t83 58t108 21.5q55 0 103.5 -20.5t84.5 -56t55.5 -85t19.5 -106.5q0 -59 -19.5 -100t-50.5 -88l-172 -254 q-31 -45 -45 -85t-14 -100v-92h104v96q0 25 8 60t29 63l174 256q41 59 65.5 115.5t24.5 128.5zM612 0v137h-137v-137h137z" />
<glyph unicode="@" horiz-adv-x="1427" d="M1270 0v1038q0 195 -115 310q-53 53 -126 81.5t-163 28.5h-307q-182 0 -289 -110q-53 -55 -82.5 -133t-29.5 -177v-716q0 -68 7 -116t25.5 -86t49 -70t77.5 -64l72 71q-39 27 -63.5 52.5t-39 55.5t-19.5 66.5t-5 90.5v722q0 90 18.5 143.5t65.5 100.5q45 45 99.5 65.5 t132.5 20.5h270q78 0 133 -20.5t100 -65.5q47 -47 65.5 -101t18.5 -143v-182q-53 72 -122.5 105.5t-163.5 33.5q-92 0 -169 -35.5t-122 -101.5q-43 -61 -61.5 -148t-18.5 -222q0 -139 20.5 -225.5t67.5 -149.5q102 -133 285 -133q98 0 165.5 32.5t118.5 102.5v-121h105z M1165 494q0 -76 -8 -150t-37.5 -133t-84 -96t-146.5 -37t-146.5 37t-84 96t-38 133t-8.5 150t8.5 149.5t38 133t84 96t146.5 36.5t146.5 -36.5t84 -96t37.5 -133t8 -149.5z" />
<glyph unicode="A" horiz-adv-x="1232" d="M1202 0l-536 1458h-99l-536 -1458h119l126 354h680l127 -354h119zM922 453h-611l305 858z" />
<glyph unicode="B" horiz-adv-x="1374" d="M1206 397q0 127 -65.5 219.5t-184.5 133.5q106 35 167 124t61 203q0 90 -32 161t-88 120t-134 74.5t-168 25.5h-537v-1458h553q96 0 175 25.5t135.5 76t87 124t30.5 171.5zM1073 1077q0 -76 -25.5 -129t-69.5 -87t-103.5 -50t-124.5 -16h-414v565h414q66 0 125 -16.5 t103 -50t69.5 -87t25.5 -129.5zM1096 397q0 -141 -90.5 -220t-239.5 -79h-430v598h430q150 0 240 -79t90 -220z" />
<glyph unicode="C" horiz-adv-x="1318" d="M1163 414h-108q-33 -152 -136.5 -240t-250.5 -88q-78 0 -150 28.5t-127 84.5q-39 39 -61.5 83t-33.5 104t-14 143t-3 200t3 200t14 143.5t33.5 104.5t61.5 83q55 55 127 83.5t150 28.5q147 0 248.5 -88t134.5 -240h112q-18 98 -61 177t-106.5 134.5t-146.5 85t-181 29.5 q-104 0 -198.5 -38.5t-166.5 -110.5q-49 -49 -76.5 -102.5t-41 -121t-15.5 -156.5t-2 -212t2 -213t15.5 -157.5t41 -120t76.5 -101.5q72 -72 166 -110.5t199 -38.5q96 0 179 29.5t147.5 85t107.5 134.5t61 177z" />
<glyph unicode="D" horiz-adv-x="1388" d="M1221 750q0 74 -1 152.5t-14.5 153t-42 144.5t-84.5 125q-133 133 -364 133h-490v-1458h490q115 0 207 34t157 99q55 55 84 131t42.5 159t14.5 168t1 159zM1110 750q0 -61 -1 -136t-10 -150t-32 -141.5t-66 -111.5q-63 -66 -144 -89.5t-169 -23.5h-352v1262h352 q88 0 169 -23.5t144 -89.5q43 -45 66 -105.5t32 -127t10 -135t1 -129.5z" />
<glyph unicode="E" horiz-adv-x="1224" d="M1110 0v98h-774v588h659v98h-659v576h774v98h-885v-1458h885z" />
<glyph unicode="F" horiz-adv-x="1179" d="M1110 1360v98h-885v-1458h111v662h659v98h-659v600h774z" />
<glyph unicode="G" horiz-adv-x="1333" d="M1169 508v237h-501v-98h391v-131q0 -94 -20.5 -161.5t-67.5 -127.5q-57 -70 -137 -105.5t-166 -35.5q-78 0 -150 28.5t-127 84.5q-39 39 -61.5 83t-33.5 104t-14 143t-3 200t3 200t14 143.5t33.5 104.5t61.5 83q55 55 127 83.5t150 28.5q147 0 250.5 -88t136.5 -240h110 q-16 96 -60 175t-109.5 134.5t-148.5 86t-179 30.5q-104 0 -198.5 -38.5t-166.5 -110.5q-49 -49 -76.5 -102.5t-41 -121t-15.5 -156.5t-2 -212t2 -213t15.5 -157.5t41 -120t76.5 -101.5q72 -72 166 -110.5t199 -38.5q111 0 211 44t172 124q66 70 92 153.5t26 198.5z" />
<glyph unicode="H" horiz-adv-x="1431" d="M1206 0v1458h-110v-674h-760v674h-111v-1458h111v686h760v-686h110z" />
<glyph unicode="I" horiz-adv-x="561" d="M336 0v1458h-111v-1458h111z" />
<glyph unicode="J" horiz-adv-x="1019" d="M815 430v1028h-110v-1005q0 -176 -83 -271.5t-241 -95.5q-96 0 -149.5 30.5t-94.5 71.5l-76 -75q125 -125 320 -125q98 0 179 31.5t137.5 90t87 139.5t30.5 181z" />
<glyph unicode="K" horiz-adv-x="1320" d="M1284 0l-526 901l450 557h-133l-739 -911v911h-111v-1458h111v395l348 422l469 -817h131z" />
<glyph unicode="L" horiz-adv-x="1171" d="M1110 0v98h-774v1360h-111v-1458h885z" />
<glyph unicode="M" horiz-adv-x="1675" d="M1450 0v1458h-111l-495 -1124l-508 1124h-111v-1458h111v1202l450 -997h111l442 997v-1202h111z" />
<glyph unicode="N" horiz-adv-x="1513" d="M1288 0v1458h-110v-1263l-842 1263h-111v-1458h111v1268l842 -1268h110z" />
<glyph unicode="O" horiz-adv-x="1335" d="M1167 729q0 123 -2 212t-15 156.5t-41 121t-77 102.5q-72 72 -166 110.5t-198 38.5t-198.5 -38.5t-166.5 -110.5q-49 -49 -76.5 -102.5t-41 -121t-15.5 -156.5t-2 -212t2 -213t15.5 -157.5t41 -120t76.5 -101.5q72 -72 166 -110.5t199 -38.5q104 0 198.5 39t165.5 110 q49 49 77 101.5t41 120t15 157.5t2 213zM1057 729q0 -117 -3 -200t-14.5 -143t-34 -104t-61.5 -83q-55 -55 -127 -84t-149 -29q-78 0 -150 28.5t-127 84.5q-39 39 -61.5 83t-33.5 104t-14 143t-3 200t3 200t14 143.5t33.5 104.5t61.5 83q55 55 127 83.5t150 28.5 t149.5 -28.5t126.5 -83.5q39 -39 61.5 -83t34 -104.5t14.5 -143.5t3 -200z" />
<glyph unicode="P" horiz-adv-x="1292" d="M1200 1038q0 100 -33.5 178t-92 131.5t-139.5 82t-175 28.5h-535v-1458h111v618h424q94 0 175 28t139.5 82t92 132t33.5 178zM1090 1038q0 -82 -26 -142t-71 -100t-107.5 -59.5t-137.5 -19.5h-412v643h412q76 0 138 -19.5t107 -59.5t71 -100.5t26 -142.5z" />
<glyph unicode="Q" horiz-adv-x="1333" d="M1235 0l-172 172q39 45 59.5 95t30.5 116t12 149.5t2 196.5q0 123 -2 212t-15 156.5t-41 121t-77 102.5q-72 72 -166 110.5t-198 38.5t-198.5 -38.5t-166.5 -110.5q-49 -49 -76.5 -102.5t-41 -121t-15.5 -156.5t-2 -212t2 -213t15.5 -157.5t41 -120t76.5 -101.5 q72 -72 166 -110.5t199 -38.5q88 0 171 28.5t150 81.5l172 -172zM1057 729q0 -98 -2 -173t-9.5 -131t-20.5 -99t-38 -78l-203 203l-73 -74l204 -205q-109 -86 -247 -86q-78 0 -150 28.5t-127 84.5q-39 39 -61.5 83t-33.5 104t-14 143t-3 200t3 200t14 143.5t33.5 104.5 t61.5 83q55 55 127 83.5t150 28.5t149.5 -28.5t126.5 -83.5q39 -39 61.5 -83t34 -104.5t14.5 -143.5t3 -200z" />
<glyph unicode="R" horiz-adv-x="1345" d="M1214 0l-352 674q154 27 245 128t91 265q0 94 -31.5 168t-88 123t-133.5 74.5t-165 25.5h-555v-1458h111v672h401l348 -672h129zM1087 1065q0 -76 -23.5 -131t-66.5 -92t-102 -54.5t-129 -17.5h-430v590h430q70 0 129 -17.5t102 -54.5t66.5 -92t23.5 -131z" />
<glyph unicode="S" horiz-adv-x="1202" d="M1081 391q0 88 -33.5 161t-93.5 122q-23 18 -47 33.5t-54 26.5t-69 19.5t-90 16.5l-157 25q-61 10 -120 33.5t-98 56.5q-76 63 -75 190q0 139 89 220t249 81q66 0 117 -10t91.5 -27.5t75.5 -42t70 -55.5l72 72q-94 82 -189.5 119.5t-230.5 37.5q-211 0 -332 -107.5 t-121 -291.5q0 -172 115 -268q94 -82 260 -107l170 -26q45 -6 75.5 -13.5t54.5 -15.5t42 -20.5l39 -28.5q80 -72 80 -205q0 -143 -100.5 -222t-274.5 -79q-66 0 -120 8t-103 28.5t-95.5 53.5t-95.5 82l-78 -78q49 -49 101.5 -86t111 -60.5t125 -34.5t148.5 -11 q229 0 360 108.5t131 294.5z" />
<glyph unicode="T" horiz-adv-x="1103" d="M1042 1360v98h-981v-98h435v-1360h110v1360h436z" />
<glyph unicode="U" horiz-adv-x="1409" d="M1204 473v985h-110v-971q0 -90 -28 -164.5t-79 -127t-122.5 -81t-159.5 -28.5t-160 28.5t-123 81t-79 127t-28 164.5v971h-110v-985q0 -106 37 -195.5t103.5 -154t157.5 -100t202 -35.5t201.5 35.5t157 100t103.5 154t37 195.5z" />
<glyph unicode="V" horiz-adv-x="1093" d="M1073 1458h-117l-409 -1263l-410 1263h-117l480 -1458h94z" />
<glyph unicode="W" horiz-adv-x="1724" d="M1683 1458h-116l-307 -1268l-340 1268h-115l-340 -1268l-307 1268h-117l365 -1458h112l344 1270l344 -1270h113z" />
<glyph unicode="X" horiz-adv-x="1089" d="M1053 0l-451 748l418 710h-127l-350 -612l-348 612h-129l417 -710l-446 -748h125l381 649l381 -649h129z" />
<glyph unicode="Y" horiz-adv-x="1011" d="M991 1458h-119l-362 -737l-371 737h-119l431 -854v-604h110v604z" />
<glyph unicode="Z" horiz-adv-x="1144" d="M1016 0v98h-774l774 1262v98h-856v-98h737l-768 -1243v-117h887z" />
<glyph unicode="[" horiz-adv-x="593" d="M502 -152v93h-199v1577h199v92h-303v-1762h303z" />
<glyph unicode="\" horiz-adv-x="692" d="M692 -152l-583 1762h-109l584 -1762h108z" />
<glyph unicode="]" horiz-adv-x="593" d="M395 -152v1762h-303v-86h205v-1590h-205v-86h303z" />
<glyph unicode="^" d="M897 864l-324 606h-94l-323 -606h104l266 496l267 -496h104z" />
<glyph unicode="_" d="M1053 -328v78h-1053v-78h1053z" />
<glyph unicode="`" horiz-adv-x="1024" d="M608 1208l-198 301h-138l217 -301h119z" />
<glyph unicode="a" horiz-adv-x="1073" d="M883 0v676q0 156 -93.5 239.5t-289.5 83.5q-121 0 -203 -31.5t-145 -119.5l75 -66q47 68 107.5 96.5t165.5 28.5q152 0 215 -61.5t63 -179.5v-111h-319q-162 0 -253 -74.5t-91 -210.5q0 -55 18.5 -106t52.5 -86q47 -49 114 -69.5t177 -20.5q104 0 171 23.5t130 86.5v-98 h105zM778 344q0 -137 -55 -188q-53 -51 -115.5 -63.5t-130.5 -12.5q-135 0 -196.5 47t-61.5 145q0 199 252 199h307v-127z" />
<glyph unicode="b" horiz-adv-x="1105" d="M965 494q0 117 -26 230.5t-101 188.5q-39 39 -101.5 62.5t-140.5 23.5q-84 0 -155.5 -26.5t-137.5 -112.5v598h-104v-1458h104v127q66 -86 137.5 -112.5t155.5 -26.5q78 0 140.5 23.5t101.5 62.5q76 76 101.5 189.5t25.5 230.5zM860 494q0 -78 -9 -152t-39 -132t-85 -94 t-145 -36t-145.5 36t-85 94t-39 132t-9.5 152q0 76 9.5 150.5t39 133t85 94t145.5 35.5t145 -35.5t85 -94t39 -133t9 -150.5z" />
<glyph unicode="c" horiz-adv-x="1009" d="M901 139l-72 66q-31 -35 -60.5 -59.5t-59 -39t-62.5 -20.5t-72 -6q-84 0 -150.5 32.5t-111.5 98.5q-37 53 -52 117.5t-15 165.5q0 100 15 164.5t52 117.5q45 66 112 98.5t150 32.5q78 0 134.5 -27.5t119.5 -97.5l72 66q-41 43 -78 72.5t-74.5 47t-79.5 24.5t-94 7 q-100 0 -181 -34.5t-137 -100t-86 -160t-30 -210.5q0 -117 30 -211.5t86 -160t137 -100t181 -34.5q51 0 93.5 7t80 24.5t74.5 47t78 72.5z" />
<glyph unicode="d" horiz-adv-x="1105" d="M907 0v1458h-104v-598q-66 86 -137.5 112.5t-155.5 26.5q-78 0 -140.5 -23.5t-101.5 -62.5q-76 -76 -101.5 -189.5t-25.5 -229.5q0 -117 26 -230.5t101 -189.5q39 -39 101.5 -62.5t140.5 -23.5q84 0 155.5 26.5t137.5 112.5v-127h104zM803 494q0 -78 -9.5 -152t-39 -132 t-85 -94t-145.5 -36t-145 36t-85 94t-39 132t-9 152q0 76 9 150.5t39 133t85 94t145 35.5t145.5 -35.5t85 -94t39 -133t9.5 -150.5z" />
<glyph unicode="e" horiz-adv-x="1071" d="M932 471v47q0 227 -104.5 354t-290.5 127t-291 -133t-105 -372q0 -248 107.5 -377t312.5 -129q61 0 110.5 9t91.5 28.5t80 48t75 65.5l-78 62q-63 -63 -124 -91t-149 -28q-158 0 -239.5 100.5t-81.5 288.5h686zM827 555h-581q2 35 4 60.5t6 45t9 39t16 41.5 q33 78 101.5 122t154.5 44t154.5 -44t101.5 -122q8 -23 14 -42t10 -38.5t6 -45t4 -60.5z" />
<glyph unicode="f" horiz-adv-x="622" d="M557 909v78h-223v215q0 78 37 121t114 43h72v92h-90q-117 0 -177.5 -72.5t-60.5 -185.5v-213h-135v-78h135v-909h105v909h223z" />
<glyph unicode="g" horiz-adv-x="1105" d="M907 -55v1042h-104v-127q-66 86 -137.5 112.5t-155.5 26.5q-78 0 -140.5 -23.5t-101.5 -62.5q-76 -76 -101.5 -189.5t-25.5 -229.5q0 -117 26 -230.5t101 -189.5q39 -39 101.5 -62.5t140.5 -23.5q84 0 155.5 26.5t137.5 112.5v-176q0 -74 -17.5 -136.5t-54.5 -108.5 t-93 -71.5t-134 -25.5q-47 0 -82 7t-63.5 20.5t-55.5 34t-55 46.5l-70 -69q39 -35 74 -59.5t72.5 -41t81 -23.5t98.5 -7q96 0 171 31.5t127 89t78.5 136.5t26.5 171zM803 494q0 -78 -9.5 -152t-39 -132t-85 -94t-145.5 -36t-145 36t-85 94t-39 132t-9 152q0 76 9 150.5 t39 133t85 94t145 35.5t145.5 -35.5t85 -94t39 -133t9.5 -150.5z" />
<glyph unicode="h" horiz-adv-x="1144" d="M958 0v631q0 172 -97 270t-267 98q-180 0 -291 -129v588h-104v-1458h104v612q0 141 73 218t206 77t202.5 -75.5t69.5 -219.5v-612h104z" />
<glyph unicode="i" horiz-adv-x="501" d="M315 1329v129h-129v-129h129zM303 0v987h-104v-987h104z" />
<glyph unicode="j" horiz-adv-x="501" d="M315 1329v129h-129v-129h129zM303 -215v1202h-104v-1200q0 -84 -32 -125t-120 -41h-72v-92h91q121 0 179 69.5t58 186.5z" />
<glyph unicode="k" horiz-adv-x="1079" d="M997 0l-397 618l326 369h-133l-490 -557v1028h-104v-1458h104v283l225 260l340 -543h129z" />
<glyph unicode="l" horiz-adv-x="587" d="M522 0v92h-71q-88 0 -120 41t-32 125v1200h-104v-1202q0 -117 58 -186.5t179 -69.5h90z" />
<glyph unicode="m" horiz-adv-x="1798" d="M1612 0v631q0 176 -103 274q-47 45 -112.5 69.5t-147.5 24.5q-111 0 -195.5 -46t-140.5 -134q-45 88 -125.5 134t-191.5 46q-182 0 -293 -129v117h-104v-987h104v612q0 141 73 218t206 77t202.5 -75.5t69.5 -219.5v-612h104v631q0 127 75 201.5t204 74.5 q133 0 202.5 -75.5t69.5 -219.5v-612h103z" />
<glyph unicode="n" horiz-adv-x="1144" d="M958 0v631q0 176 -102 274q-98 94 -262 94q-180 0 -291 -129v117h-104v-987h104v612q0 141 73 218t206 77t202.5 -75.5t69.5 -219.5v-612h104z" />
<glyph unicode="o" horiz-adv-x="1077" d="M936 494q0 106 -22.5 212.5t-100.5 184.5q-53 53 -121.5 80.5t-152.5 27.5q-166 0 -275 -108q-78 -78 -100.5 -184.5t-22.5 -212.5t22.5 -213t100.5 -185q109 -109 275 -108q84 0 152.5 27.5t121.5 80.5q78 78 100.5 185t22.5 213zM831 494q0 -43 -2 -88.5t-11 -89.5 t-26.5 -82.5t-48.5 -69.5q-41 -41 -93 -62.5t-111 -21.5q-121 0 -205 84q-31 31 -48.5 69.5t-26.5 82.5t-11 89.5t-2 88.5t2 88t11 89t26.5 83t48.5 69q84 84 205 84q59 0 111 -21.5t93 -62.5q31 -31 48.5 -69.5t26.5 -82.5t11 -89t2 -88z" />
<glyph unicode="p" horiz-adv-x="1105" d="M965 494q0 117 -26 230.5t-101 188.5q-39 39 -101.5 62.5t-140.5 23.5q-84 0 -155.5 -26.5t-137.5 -112.5v127h-104v-1458h104v598q66 -86 137.5 -112.5t155.5 -26.5q78 0 140.5 23.5t101.5 62.5q76 76 101.5 189.5t25.5 230.5zM860 494q0 -78 -9 -152t-39 -132t-85 -94 t-145 -36t-145.5 36t-85 94t-39 132t-9.5 152q0 76 9.5 150.5t39 133t85 94t145.5 35.5t145 -35.5t85 -94t39 -133t9 -150.5z" />
<glyph unicode="q" horiz-adv-x="1105" d="M907 -471v1458h-104v-127q-66 86 -137.5 112.5t-155.5 26.5q-78 0 -140.5 -23.5t-101.5 -62.5q-76 -76 -101.5 -189.5t-25.5 -229.5q0 -117 26 -230.5t101 -189.5q39 -39 101.5 -62.5t140.5 -23.5q84 0 155.5 26.5t137.5 112.5v-598h104zM803 494q0 -78 -9.5 -152 t-39 -132t-85 -94t-145.5 -36t-145 36t-85 94t-39 132t-9 152q0 76 9 150.5t39 133t85 94t145 35.5t145.5 -35.5t85 -94t39 -133t9.5 -150.5z" />
<glyph unicode="r" horiz-adv-x="837" d="M829 905q-53 53 -109 73.5t-128 20.5q-88 0 -167 -36.5t-122 -106.5v131h-104v-987h104v608q0 59 17.5 113.5t51.5 95.5t83 65.5t112 24.5q61 0 101.5 -16.5t85.5 -61.5z" />
<glyph unicode="s" horiz-adv-x="1011" d="M897 281q0 72 -22.5 118.5t-60.5 76.5t-91 43t-115 20l-159 14q-104 10 -152.5 49t-48.5 117q0 92 64.5 141t187.5 49q162 0 276 -84l70 70q-66 49 -155 76.5t-191 27.5q-162 0 -258.5 -75.5t-96.5 -204.5q0 -233 297 -258l164 -15q98 -10 143.5 -49t45.5 -116 q0 -100 -76 -150.5t-221 -50.5q-209 0 -324 121l-72 -72q76 -72 173.5 -106.5t226.5 -34.5q182 0 288.5 79t106.5 214z" />
<glyph unicode="t" horiz-adv-x="665" d="M551 0v92h-72q-78 0 -114.5 43t-36.5 121v653h223v78h-223v316h-105v-316h-135v-78h135v-651q0 -113 60.5 -185.5t177.5 -72.5h90z" />
<glyph unicode="u" horiz-adv-x="1144" d="M946 0v987h-104v-612q0 -141 -73 -218t-206 -77t-202.5 75.5t-69.5 219.5v612h-105v-631q0 -176 103 -274q98 -94 262 -94q180 0 291 129v-117h104z" />
<glyph unicode="v" horiz-adv-x="880" d="M852 987h-115l-297 -864l-297 864h-114l360 -987h103z" />
<glyph unicode="w" horiz-adv-x="1458" d="M1430 987h-115l-252 -864l-283 864h-102l-283 -864l-252 864h-114l315 -987h107l278 823l279 -823h106z" />
<glyph unicode="x" horiz-adv-x="942" d="M860 0l-334 504l320 483h-127l-246 -397l-250 397h-127l320 -483l-334 -504h127l264 416l260 -416h127z" />
<glyph unicode="y" horiz-adv-x="880" d="M852 987h-115l-297 -864l-297 864h-114l360 -987l-80 -219q-14 -37 -27.5 -62.5t-34 -42t-48 -23.5t-70.5 -7h-39v-92h49q49 0 99.5 14t87.5 49q39 35 67 115z" />
<glyph unicode="z" horiz-adv-x="925" d="M815 0v92h-596l596 797v98h-672v-92h562l-594 -797v-98h704z" />
<glyph unicode="{" horiz-adv-x="647" d="M545 -152v93h-27q-55 0 -79.5 5t-41.5 21q-16 16 -22 46t-6 87v424q0 80 -30 126t-95 79q66 33 95.5 79t29.5 126v424q0 57 6 87t22 46t41 21.5t80 5.5h27v92h-29q-76 0 -122 -12.5t-77 -43.5q-29 -29 -41 -69.5t-12 -124.5v-424q0 -86 -37 -123q-16 -16 -37.5 -27.5 t-50.5 -11.5h-37v-90h37q29 0 50.5 -11t37.5 -28q37 -37 37 -123v-424q0 -84 12.5 -125t40.5 -69q31 -31 77 -43.5t122 -12.5h29z" />
<glyph unicode="|" horiz-adv-x="649" d="M377 -152v1762h-105v-1762h105z" />
<glyph unicode="}" horiz-adv-x="647" d="M545 684v90h-37q-29 0 -50.5 11.5t-37.5 27.5q-37 37 -37 123v424q0 84 -12.5 125t-40.5 69q-31 31 -77 43.5t-122 12.5h-29v-92h27q55 0 79.5 -5.5t41.5 -21.5q16 -16 22.5 -46t6.5 -87v-424q0 -80 29.5 -126t94.5 -79q-66 -33 -95 -79t-29 -126v-424q0 -57 -6.5 -86.5 t-22.5 -46.5q-16 -16 -41 -21t-80 -5h-27v-93h29q76 0 122 12.5t77 43.5q29 29 41 69.5t12 124.5v424q0 86 37 123q16 16 37.5 27.5t50.5 11.5h37z" />
<glyph unicode="~" d="M944 567l-63 64q-31 -31 -53.5 -49.5t-41 -27.5t-37 -12t-38.5 -3q-41 0 -77 14l-79 33l-106 43q-51 20 -103 20q-31 0 -55.5 -4t-51 -17.5t-58 -39t-72.5 -66.5l63 -63q31 31 53.5 49t41 27.5t35.5 12.5t40 3q41 0 77 -14l79 -33l106 -43q51 -20 103 -21q31 0 55 4.5 t51 17.5t58.5 38.5t72.5 66.5z" />
<glyph unicode="&#xa1;" horiz-adv-x="622" d="M350 850v137h-137v-137h137zM338 -471l-6 1065h-101l-6 -1065h113z" />
<glyph unicode="&#xa2;" horiz-adv-x="1019" d="M901 395l-72 66q-59 -66 -110 -93.5t-121 -31.5v827q70 -4 121 -31.5t110 -93.5l72 66q-37 41 -71.5 69.5t-70.5 46t-76 25.5t-85 10v203h-88v-207q-174 -23 -271.5 -153.5t-97.5 -347.5t97.5 -348.5t271.5 -153.5v-248h88v244q45 2 85 10t76 25.5t70.5 46t71.5 69.5z M510 342q-125 23 -197 125q-37 53 -52 117.5t-15 165.5q0 100 15 164.5t52 117.5q72 102 197 125v-815z" />
<glyph unicode="&#xa3;" horiz-adv-x="1099" d="M987 0v98h-643v602h324v78h-324v228q0 176 83 271t241 95q96 0 149 -30.5t94 -71.5l76 76q-125 125 -319 124q-98 0 -179 -31.5t-137.5 -90t-87.5 -139.5t-31 -181v-250h-131v-78h131v-700h754z" />
<glyph unicode="&#xa4;" horiz-adv-x="1345" d="M1171 111l-151 151q47 57 71.5 129t24.5 152t-24.5 152.5t-71.5 129.5l151 150l-65 65l-154 -149q-57 47 -128.5 71.5t-151.5 24.5t-151.5 -24.5t-129.5 -71.5l-151 149l-66 -65l152 -150q-47 -57 -73 -129.5t-26 -152.5t26 -152t73 -129l-152 -151l66 -66l151 152 q57 -47 129 -73t152 -26t151.5 26t128.5 73l154 -152zM1018 543q0 -72 -26.5 -135.5t-74 -110.5t-111 -73.5t-134.5 -26.5q-72 0 -135.5 26.5t-110.5 73.5t-73.5 110.5t-26.5 135.5t26.5 135t73.5 110.5t110.5 74t135.5 26.5t135 -26.5t110.5 -74t74 -110.5t26.5 -135z" />
<glyph unicode="&#xa5;" horiz-adv-x="1009" d="M989 1458h-115l-366 -739l-371 739h-117l336 -667h-223v-78h262l56 -109v-108h-318v-78h318v-418h110v418h316v78h-316v108l55 109h261v78h-222z" />
<glyph unicode="&#xa6;" horiz-adv-x="671" d="M377 893v717h-105v-717h105zM377 -152v717h-105v-717h105z" />
<glyph unicode="&#xa7;" horiz-adv-x="1159" d="M961 506q0 66 -18.5 125t-54.5 108t-87 84t-115 54l-170 47q-80 23 -133 74t-53 145q0 117 67.5 174t182.5 57q113 0 179 -49t77 -164h108q-4 74 -34.5 132.5t-80 97.5t-114 59t-135.5 20q-74 0 -139.5 -22.5t-113.5 -64.5t-77 -103t-29 -137q0 -113 53.5 -180.5 t149.5 -108.5q-45 -20 -86 -53t-71.5 -77t-49 -98.5t-18.5 -119.5q0 -133 71.5 -233.5t202.5 -137.5l170 -47q88 -25 140.5 -86t52.5 -143q0 -119 -70 -181.5t-186 -62.5q-117 0 -186.5 54.5t-80.5 164.5h-110q6 -76 36.5 -135t81 -99t117 -61.5t142.5 -21.5 q80 0 147.5 25.5t116.5 70.5t75.5 108.5t26.5 137.5q0 111 -57.5 188.5t-153.5 110.5q45 20 86 53t72 77t49.5 98t18.5 120zM850 506q0 -72 -18.5 -120t-53.5 -87q-78 -84 -198 -84q-121 0 -199 84q-35 37 -53.5 87t-18.5 120q0 66 15.5 114t56.5 93q78 84 199 84 q115 0 198 -84q45 -45 58.5 -96.5t13.5 -110.5z" />
<glyph unicode="&#xa8;" horiz-adv-x="1024" d="M784 1229v157h-118v-157h118zM358 1229v157h-118v-157h118z" />
<glyph unicode="&#xa9;" horiz-adv-x="1830" d="M1657 729q0 154 -58.5 289t-159 235.5t-235.5 158.5t-289 58t-288.5 -58t-235 -158.5t-159 -235.5t-58.5 -289t58.5 -289t159 -235.5t235.5 -158.5t288 -58q154 0 289 58t235.5 158.5t159 235.5t58.5 289zM1559 729q0 -133 -51.5 -251t-138.5 -207t-204.5 -141 t-249.5 -52q-133 0 -249.5 52t-203.5 141t-138.5 207t-51.5 251q0 131 51.5 250t138.5 208t203.5 141t249.5 52q131 0 249 -52t205 -141t138.5 -208t51.5 -250zM1192 414l-62 61q-55 -49 -100 -66.5t-106 -17.5q-78 0 -130.5 27.5t-83 74t-44 108t-13.5 128.5 q0 68 13.5 129.5t44 108.5t83 74.5t130.5 27.5q61 0 106 -18.5t100 -67.5l62 61q-33 29 -62.5 49.5t-61.5 34t-66.5 19.5t-77.5 6q-94 0 -163 -34t-113 -92t-65.5 -135t-21.5 -163t21.5 -163t65.5 -134t112.5 -91t163.5 -34q86 0 147.5 27t120.5 80z" />
<glyph unicode="&#xaa;" horiz-adv-x="915" d="M729 670v536q0 123 -74.5 190.5t-228.5 67.5q-94 0 -159.5 -25.5t-119.5 -97.5l66 -55q37 55 84 76.5t129 21.5q117 0 166 -47t49 -139v-86h-248q-129 0 -200.5 -59.5t-71.5 -167.5q0 -45 14.5 -85t42.5 -69q39 -41 91.5 -56.5t138.5 -15.5q80 0 132 18.5t101 65.5v-73 h88zM641 944q0 -109 -41 -147q-41 -39 -90 -48.5t-102 -9.5q-104 0 -151.5 36t-47.5 112q0 154 194 153h238v-96z" />
<glyph unicode="&#xab;" horiz-adv-x="1079" d="M911 141v135l-266 267l266 266v135l-401 -401zM487 141v135l-266 267l266 266v135l-401 -401z" />
<glyph unicode="&#xac;" d="M944 219v369h-835v-96h739v-273h96z" />
<glyph unicode="&#xad;" horiz-adv-x="872" d="M705 492v96h-537v-96h537z" />
<glyph unicode="&#xae;" horiz-adv-x="1830" d="M1657 729q0 154 -58.5 289t-159 235.5t-235.5 158.5t-289 58t-288.5 -58t-235 -158.5t-159 -235.5t-58.5 -289t58.5 -289t159 -235.5t235.5 -158.5t288 -58q154 0 289 58t235.5 158.5t159 235.5t58.5 289zM1561 729q0 -133 -51.5 -252t-138.5 -208t-204.5 -141 t-251.5 -52q-133 0 -250.5 52t-204.5 141t-138.5 208t-51.5 252t51.5 252t138.5 208t204.5 141t250.5 52t251 -52t205 -141t138.5 -208t51.5 -252zM1219 319l-207 351q82 23 134 80t52 149q0 51 -20.5 96t-55.5 77t-81 50.5t-97 18.5h-262v-822h92v343h135l203 -343h107z M1106 899q0 -68 -49 -112t-123 -44h-160v314h160q74 0 123 -45t49 -113z" />
<glyph unicode="&#xaf;" horiz-adv-x="1024" d="M815 1245v94h-606v-94h606z" />
<glyph unicode="&#x2c9;" horiz-adv-x="1024" d="M815 1245v94h-606v-94h606z" />
<glyph unicode="&#xb0;" horiz-adv-x="937" d="M791 1151q0 68 -26 126t-69 101t-101 69t-126 26t-126 -26t-101 -69t-69 -101t-26 -126t26 -126t69 -101t101 -69t126 -26t126 26t101 69t69 101t26 126zM698 1151q0 -51 -17 -94t-48 -75t-73 -49.5t-91 -17.5t-91 17.5t-73 49.5t-48 75t-17 94t17 94t47 75t72 49t91 17 t91 -18t74 -50t49 -75t17 -92z" />
<glyph unicode="&#xb1;" d="M944 553v96h-369v371h-96v-371h-370v-96h370v-373h96v373h369zM944 0v96h-835v-96h835z" />
<glyph unicode="&#xb2;" horiz-adv-x="688" d="M586 584v82h-375l305 385q37 47 53.5 86t16.5 92q0 111 -66.5 174t-175.5 63q-111 0 -176.5 -66.5t-65.5 -170.5h91q0 86 46 120.5t105 34.5q72 0 111 -42t39 -113q0 -66 -48 -127l-344 -436v-82h484z" />
<glyph unicode="&#xb3;" horiz-adv-x="720" d="M618 823q0 162 -133 211q117 51 117 195q0 109 -66.5 173t-175.5 64q-100 0 -168.5 -59t-76.5 -166h90q6 66 46 104.5t109 38.5q63 0 107.5 -39.5t44.5 -117.5q0 -74 -38 -116t-118 -42h-16v-80h16q90 0 131 -44t41 -122q0 -80 -47 -124t-119 -44q-63 0 -113 35t-54 117 h-93q2 -59 23.5 -103.5t56.5 -73t81 -43t99 -14.5t100.5 16.5t82.5 48.5t54 78t19 107z" />
<glyph unicode="&#xb4;" horiz-adv-x="1024" d="M752 1509h-138l-198 -301h119z" />
<glyph unicode="&#xb5;" horiz-adv-x="1138" d="M940 0v987h-104v-612q0 -141 -73 -218t-206 -77t-202.5 75.5t-69.5 219.5v612h-105v-1458h105v551q98 -92 260 -92q180 0 291 129v-117h104z" />
<glyph unicode="&#x3bc;" horiz-adv-x="1138" d="M940 0v987h-104v-612q0 -141 -73 -218t-206 -77t-202.5 75.5t-69.5 219.5v612h-105v-1458h105v551q98 -92 260 -92q180 0 291 129v-117h104z" />
<glyph unicode="&#xb6;" horiz-adv-x="1185" d="M961 -471v1929h-437q-104 0 -185 -32.5t-136.5 -87t-83 -124t-27.5 -145.5q0 -72 26.5 -141.5t79 -124.5t128 -89t174.5 -34v-1151h104v1831h252v-1831h105z" />
<glyph unicode="&#xb7;" horiz-adv-x="540" d="M346 465v151h-151v-151h151z" />
<glyph unicode="&#xb8;" horiz-adv-x="1024" d="M631 -143h-113l-147 -308h129z" />
<glyph unicode="&#xb9;" horiz-adv-x="509" d="M346 584v874h-90l-164 -141v-105l164 146v-774h90z" />
<glyph unicode="&#xba;" horiz-adv-x="925" d="M778 1063q0 86 -17.5 169t-80.5 146q-86 86 -217 86t-217 -86q-63 -63 -81 -146t-18 -169t17.5 -169t81.5 -146q86 -86 217 -86t217 86q63 63 80.5 146t17.5 169zM690 1063q0 -66 -10 -137.5t-57 -118.5q-31 -31 -72 -48.5t-88 -17.5t-88 17.5t-72 48.5q-47 47 -57 118.5 t-10 137.5t10 137.5t57 118.5q66 66 160 65q94 0 160 -65q47 -47 57 -118.5t10 -137.5z" />
<glyph unicode="&#xbb;" horiz-adv-x="1079" d="M993 543l-401 401v-135l266 -266l-266 -267v-135zM569 543l-401 401v-135l266 -266l-266 -267v-135z" />
<glyph unicode="&#xbc;" horiz-adv-x="1548" d="M1466 137v82h-106v246h-90v-246h-250l313 655h-96l-315 -655v-82h348v-137h90v137h106zM1116 1458h-92l-680 -1458h92zM346 584v874h-90l-164 -141v-105l164 146v-774h90z" />
<glyph unicode="&#xbd;" horiz-adv-x="1564" d="M1462 0v82h-375l306 385q35 47 52 86t17 92q0 111 -66.5 174.5t-174.5 63.5q-111 0 -176.5 -66.5t-65.5 -171.5h90q0 86 46 121t106 35q72 0 110.5 -42t38.5 -114q0 -66 -47 -127l-344 -436v-82h483zM1085 1458h-92l-680 -1458h93zM346 584v874h-90l-164 -141v-105 l164 146v-774h90z" />
<glyph unicode="&#xbe;" horiz-adv-x="1650" d="M1569 137v82h-107v246h-90v-246h-250l314 655h-97l-315 -655v-82h348v-137h90v137h107zM1239 1458h-92l-680 -1458h92zM618 823q0 162 -133 211q117 51 117 195q0 109 -66.5 173t-175.5 64q-100 0 -168.5 -59t-76.5 -166h90q6 66 46 104.5t109 38.5q63 0 107.5 -39.5 t44.5 -117.5q0 -74 -38 -116t-118 -42h-16v-80h16q90 0 131 -44t41 -122q0 -80 -47 -124t-119 -44q-63 0 -113 35t-54 117h-93q2 -59 23.5 -103.5t56.5 -73t81 -43t99 -14.5t100.5 16.5t82.5 48.5t54 78t19 107z" />
<glyph unicode="&#xbf;" horiz-adv-x="999" d="M524 850v137h-137v-137h137zM836 -123h-105q0 -53 -18.5 -102t-52 -86t-83 -58.5t-108.5 -21.5q-55 0 -103.5 20.5t-84 56t-55 85t-19.5 106.5q0 59 19.5 100t49.5 89l173 253q31 45 45 85t14 100v92h-105v-96q0 -25 -8 -59.5t-28 -63.5l-174 -256q-41 -59 -66 -115.5 t-25 -128.5q0 -78 28 -143.5t77 -113.5t116.5 -75.5t145.5 -27.5q82 0 149.5 28.5t115.5 77.5t75 114.5t27 139.5z" />
<glyph unicode="&#xc0;" horiz-adv-x="1232" d="M1202 0l-536 1458h-99l-536 -1458h119l126 354h680l127 -354h119zM922 453h-611l305 858zM712 1597l-198 301h-138l217 -301h119z" />
<glyph unicode="&#xc1;" horiz-adv-x="1232" d="M1202 0l-536 1458h-99l-536 -1458h119l126 354h680l127 -354h119zM922 453h-611l305 858zM856 1898h-138l-198 -301h119z" />
<glyph unicode="&#xc2;" horiz-adv-x="1232" d="M1202 0l-536 1458h-99l-536 -1458h119l126 354h680l127 -354h119zM922 453h-611l305 858zM923 1597l-252 301h-110l-252 -301h117l190 224l190 -224h117z" />
<glyph unicode="&#xc3;" horiz-adv-x="1232" d="M1202 0l-536 1458h-99l-536 -1458h119l126 354h680l127 -354h119zM922 453h-611l305 858zM921 1726l-61 60q-47 -47 -73 -57.5t-48 -10.5q-31 0 -56.5 11.5t-58.5 31.5q-37 23 -66.5 36t-74.5 13q-16 0 -32.5 -2t-38 -11t-49.5 -29.5t-62 -55.5l61 -59q47 47 71.5 57 t49.5 10q31 0 58.5 -13t56.5 -30q35 -20 66.5 -34.5t74.5 -14.5q14 0 30.5 2t39 11.5t50 29.5t62.5 55z" />
<glyph unicode="&#xc4;" horiz-adv-x="1232" d="M1202 0l-536 1458h-99l-536 -1458h119l126 354h680l127 -354h119zM922 453h-611l305 858zM888 1618v157h-118v-157h118zM462 1618v157h-118v-157h118z" />
<glyph unicode="&#xc5;" horiz-adv-x="1232" d="M1202 0l-536 1458h-99l-536 -1458h119l126 354h680l127 -354h119zM922 453h-611l305 858zM849 1763q0 49 -18 91.5t-50 74t-74 50t-91 18.5t-91 -18.5t-74 -50t-50 -73.5t-18 -92q0 -49 18 -91t50 -74.5t74 -51t91 -18.5t91 18.5t74 51t50 74.5t18 91zM766 1763 q0 -61 -44.5 -105t-105.5 -44t-105.5 44t-44.5 105t44.5 104.5t105.5 43.5t105.5 -43.5t44.5 -104.5z" />
<glyph unicode="&#xc6;" horiz-adv-x="1845" d="M1731 0v98h-775v582h660v98h-660v582h775v98h-938l-773 -1458h121l185 354h522v-354h883zM848 453h-475l475 907v-907z" />
<glyph unicode="&#xc7;" horiz-adv-x="1318" d="M1163 414h-108q-33 -152 -136.5 -240t-250.5 -88q-78 0 -150 28.5t-127 84.5q-39 39 -61.5 83t-33.5 104t-14 143t-3 200t3 200t14 143.5t33.5 104.5t61.5 83q55 55 127 83.5t150 28.5q147 0 248.5 -88t134.5 -240h112q-18 98 -61 177t-106.5 134.5t-146.5 85t-181 29.5 q-104 0 -198.5 -38.5t-166.5 -110.5q-49 -49 -76.5 -102.5t-41 -121t-15.5 -156.5t-2 -212t2 -213t15.5 -157.5t41 -120t76.5 -101.5q72 -72 166 -110.5t199 -38.5q96 0 179 29.5t147.5 85t107.5 134.5t61 177zM750 -143h-113l-147 -308h129z" />
<glyph unicode="&#xc8;" horiz-adv-x="1224" d="M1110 0v98h-774v588h659v98h-659v576h774v98h-885v-1458h885zM739 1597l-198 301h-138l217 -301h119z" />
<glyph unicode="&#xc9;" horiz-adv-x="1224" d="M1110 0v98h-774v588h659v98h-659v576h774v98h-885v-1458h885zM883 1898h-138l-198 -301h119z" />
<glyph unicode="&#xca;" horiz-adv-x="1224" d="M1110 0v98h-774v588h659v98h-659v576h774v98h-885v-1458h885zM950 1597l-252 301h-110l-252 -301h117l190 224l190 -224h117z" />
<glyph unicode="&#xcb;" horiz-adv-x="1224" d="M1110 0v98h-774v588h659v98h-659v576h774v98h-885v-1458h885zM915 1618v157h-118v-157h118zM489 1618v157h-118v-157h118z" />
<glyph unicode="&#xcc;" horiz-adv-x="561" d="M336 0v1458h-111v-1458h111zM563 1597l-198 301h-138l217 -301h119z" />
<glyph unicode="&#xcd;" horiz-adv-x="561" d="M336 0v1458h-111v-1458h111zM564 1898h-138l-198 -301h119z" />
<glyph unicode="&#xce;" horiz-adv-x="561" d="M336 0v1458h-111v-1458h111zM839 1597l-252 301h-110l-252 -301h117l190 224l190 -224h117z" />
<glyph unicode="&#xcf;" horiz-adv-x="561" d="M336 0v1458h-111v-1458h111zM772 1618v157h-118v-157h118zM346 1618v157h-118v-157h118z" />
<glyph unicode="&#xd0;" horiz-adv-x="1411" d="M1243 729q0 125 -3 202t-11 127t-23.5 86t-40.5 79q-68 117 -176 176t-250 59h-491v-680h-166v-86h166v-692h477q160 0 269.5 66.5t170.5 164.5q23 35 37.5 68t23.5 83t13 132t4 215zM1133 719q0 -109 -1.5 -179.5t-8.5 -119.5t-21.5 -85t-38.5 -73q-57 -86 -146.5 -126 t-205.5 -40h-353v596h365v86h-365v584h353q111 0 192.5 -36t147.5 -126q31 -41 47 -82t23 -94t9.5 -127t2.5 -178z" />
<glyph unicode="&#xd1;" horiz-adv-x="1513" d="M1288 0v1458h-110v-1263l-842 1263h-111v-1458h111v1268l842 -1268h110zM1063 1726l-61 60q-47 -47 -73 -57.5t-48 -10.5q-31 0 -56.5 11.5t-58.5 31.5q-37 23 -66.5 36t-74.5 13q-16 0 -32.5 -2t-38 -11t-49.5 -29.5t-62 -55.5l61 -59q47 47 71.5 57t49.5 10 q31 0 58.5 -13t56.5 -30q35 -20 66.5 -34.5t74.5 -14.5q14 0 30.5 2t39 11.5t50 29.5t62.5 55z" />
<glyph unicode="&#xd2;" horiz-adv-x="1335" d="M1167 729q0 123 -2 212t-15 156.5t-41 121t-77 102.5q-72 72 -166 110.5t-198 38.5t-198.5 -38.5t-166.5 -110.5q-49 -49 -76.5 -102.5t-41 -121t-15.5 -156.5t-2 -212t2 -213t15.5 -157.5t41 -120t76.5 -101.5q72 -72 166 -110.5t199 -38.5q104 0 198.5 39t165.5 110 q49 49 77 101.5t41 120t15 157.5t2 213zM1057 729q0 -117 -3 -200t-14.5 -143t-34 -104t-61.5 -83q-55 -55 -127 -84t-149 -29q-78 0 -150 28.5t-127 84.5q-39 39 -61.5 83t-33.5 104t-14 143t-3 200t3 200t14 143.5t33.5 104.5t61.5 83q55 55 127 83.5t150 28.5 t149.5 -28.5t126.5 -83.5q39 -39 61.5 -83t34 -104.5t14.5 -143.5t3 -200zM764 1597l-198 301h-138l217 -301h119z" />
<glyph unicode="&#xd3;" horiz-adv-x="1335" d="M1167 729q0 123 -2 212t-15 156.5t-41 121t-77 102.5q-72 72 -166 110.5t-198 38.5t-198.5 -38.5t-166.5 -110.5q-49 -49 -76.5 -102.5t-41 -121t-15.5 -156.5t-2 -212t2 -213t15.5 -157.5t41 -120t76.5 -101.5q72 -72 166 -110.5t199 -38.5q104 0 198.5 39t165.5 110 q49 49 77 101.5t41 120t15 157.5t2 213zM1057 729q0 -117 -3 -200t-14.5 -143t-34 -104t-61.5 -83q-55 -55 -127 -84t-149 -29q-78 0 -150 28.5t-127 84.5q-39 39 -61.5 83t-33.5 104t-14 143t-3 200t3 200t14 143.5t33.5 104.5t61.5 83q55 55 127 83.5t150 28.5 t149.5 -28.5t126.5 -83.5q39 -39 61.5 -83t34 -104.5t14.5 -143.5t3 -200zM908 1898h-138l-198 -301h119z" />
<glyph unicode="&#xd4;" horiz-adv-x="1335" d="M1167 729q0 123 -2 212t-15 156.5t-41 121t-77 102.5q-72 72 -166 110.5t-198 38.5t-198.5 -38.5t-166.5 -110.5q-49 -49 -76.5 -102.5t-41 -121t-15.5 -156.5t-2 -212t2 -213t15.5 -157.5t41 -120t76.5 -101.5q72 -72 166 -110.5t199 -38.5q104 0 198.5 39t165.5 110 q49 49 77 101.5t41 120t15 157.5t2 213zM1057 729q0 -117 -3 -200t-14.5 -143t-34 -104t-61.5 -83q-55 -55 -127 -84t-149 -29q-78 0 -150 28.5t-127 84.5q-39 39 -61.5 83t-33.5 104t-14 143t-3 200t3 200t14 143.5t33.5 104.5t61.5 83q55 55 127 83.5t150 28.5 t149.5 -28.5t126.5 -83.5q39 -39 61.5 -83t34 -104.5t14.5 -143.5t3 -200zM975 1597l-252 301h-110l-252 -301h117l190 224l190 -224h117z" />
<glyph unicode="&#xd5;" horiz-adv-x="1335" d="M1167 729q0 123 -2 212t-15 156.5t-41 121t-77 102.5q-72 72 -166 110.5t-198 38.5t-198.5 -38.5t-166.5 -110.5q-49 -49 -76.5 -102.5t-41 -121t-15.5 -156.5t-2 -212t2 -213t15.5 -157.5t41 -120t76.5 -101.5q72 -72 166 -110.5t199 -38.5q104 0 198.5 39t165.5 110 q49 49 77 101.5t41 120t15 157.5t2 213zM1057 729q0 -117 -3 -200t-14.5 -143t-34 -104t-61.5 -83q-55 -55 -127 -84t-149 -29q-78 0 -150 28.5t-127 84.5q-39 39 -61.5 83t-33.5 104t-14 143t-3 200t3 200t14 143.5t33.5 104.5t61.5 83q55 55 127 83.5t150 28.5 t149.5 -28.5t126.5 -83.5q39 -39 61.5 -83t34 -104.5t14.5 -143.5t3 -200zM973 1726l-61 60q-47 -47 -73 -57.5t-48 -10.5q-31 0 -56.5 11.5t-58.5 31.5q-37 23 -66.5 36t-74.5 13q-16 0 -32.5 -2t-38 -11t-49.5 -29.5t-62 -55.5l61 -59q47 47 71.5 57t49.5 10 q31 0 58.5 -13t56.5 -30q35 -20 66.5 -34.5t74.5 -14.5q14 0 30.5 2t39 11.5t50 29.5t62.5 55z" />
<glyph unicode="&#xd6;" horiz-adv-x="1335" d="M1167 729q0 123 -2 212t-15 156.5t-41 121t-77 102.5q-72 72 -166 110.5t-198 38.5t-198.5 -38.5t-166.5 -110.5q-49 -49 -76.5 -102.5t-41 -121t-15.5 -156.5t-2 -212t2 -213t15.5 -157.5t41 -120t76.5 -101.5q72 -72 166 -110.5t199 -38.5q104 0 198.5 39t165.5 110 q49 49 77 101.5t41 120t15 157.5t2 213zM1057 729q0 -117 -3 -200t-14.5 -143t-34 -104t-61.5 -83q-55 -55 -127 -84t-149 -29q-78 0 -150 28.5t-127 84.5q-39 39 -61.5 83t-33.5 104t-14 143t-3 200t3 200t14 143.5t33.5 104.5t61.5 83q55 55 127 83.5t150 28.5 t149.5 -28.5t126.5 -83.5q39 -39 61.5 -83t34 -104.5t14.5 -143.5t3 -200zM940 1618v157h-118v-157h118zM514 1618v157h-118v-157h118z" />
<glyph unicode="&#xd7;" d="M907 223l-317 318l317 317l-63 64l-318 -318l-317 318l-64 -64l318 -317l-318 -318l64 -63l317 317l318 -317z" />
<glyph unicode="&#xd8;" horiz-adv-x="1335" d="M1167 729q0 123 -2 212t-15 156.5t-41 121t-77 102.5l-18 18l100 209h-108l-72 -149q-121 72 -266 71q-104 0 -198.5 -38.5t-166.5 -110.5q-49 -49 -76.5 -102.5t-41 -121t-15.5 -156.5t-2 -212t2 -213t15.5 -157.5t41 -120t76.5 -101.5l19 -18l-101 -209h109l71 149 q121 -72 267 -71q104 0 198.5 39t165.5 110q49 49 77 101.5t41 120t15 157.5t2 213zM1057 729q0 -117 -3 -200t-14.5 -143t-34 -104t-61.5 -83q-55 -55 -127 -84t-149 -29q-59 0 -116.5 16.5t-105.5 51.5l519 1083q33 -37 51 -81t27.5 -102.5t11.5 -137t2 -187.5zM889 1305 l-518 -1084q-33 37 -51.5 81t-27.5 102.5t-11 137.5t-2 187q0 117 3 200t14 143.5t33.5 104.5t61.5 83q55 55 127 83.5t150 28.5q125 1 221 -67z" />
<glyph unicode="&#xd9;" horiz-adv-x="1406" d="M1204 473v985h-110v-971q0 -90 -28 -164.5t-79 -127t-122.5 -81t-159.5 -28.5t-160 28.5t-123 81t-79 127t-28 164.5v971h-110v-985q0 -106 37 -195.5t103.5 -154t157.5 -100t202 -35.5t201.5 35.5t157 100t103.5 154t37 195.5zM801 1597l-198 301h-138l217 -301h119z " />
<glyph unicode="&#xda;" horiz-adv-x="1406" d="M1204 473v985h-110v-971q0 -90 -28 -164.5t-79 -127t-122.5 -81t-159.5 -28.5t-160 28.5t-123 81t-79 127t-28 164.5v971h-110v-985q0 -106 37 -195.5t103.5 -154t157.5 -100t202 -35.5t201.5 35.5t157 100t103.5 154t37 195.5zM945 1898h-138l-198 -301h119z" />
<glyph unicode="&#xdb;" horiz-adv-x="1406" d="M1204 473v985h-110v-971q0 -90 -28 -164.5t-79 -127t-122.5 -81t-159.5 -28.5t-160 28.5t-123 81t-79 127t-28 164.5v971h-110v-985q0 -106 37 -195.5t103.5 -154t157.5 -100t202 -35.5t201.5 35.5t157 100t103.5 154t37 195.5zM1012 1597l-252 301h-110l-252 -301h117 l190 224l190 -224h117z" />
<glyph unicode="&#xdc;" horiz-adv-x="1406" d="M1204 473v985h-110v-971q0 -90 -28 -164.5t-79 -127t-122.5 -81t-159.5 -28.5t-160 28.5t-123 81t-79 127t-28 164.5v971h-110v-985q0 -106 37 -195.5t103.5 -154t157.5 -100t202 -35.5t201.5 35.5t157 100t103.5 154t37 195.5zM977 1618v157h-118v-157h118zM551 1618 v157h-118v-157h118z" />
<glyph unicode="&#xdd;" horiz-adv-x="1011" d="M991 1458h-119l-362 -737l-371 737h-119l431 -854v-604h110v604zM748 1898h-138l-198 -301h119z" />
<glyph unicode="&#xde;" horiz-adv-x="1323" d="M1200 735q0 100 -33.5 178t-92 131.5t-139.5 82t-175 28.5h-424v303h-111v-1458h111v315h424q94 0 175 28t139.5 82t92 132t33.5 178zM1090 735q0 -82 -26 -142.5t-71 -100t-107.5 -59t-137.5 -19.5h-412v643h412q76 0 138 -19.5t107 -59.5t71 -100.5t26 -142.5z" />
<glyph unicode="&#xdf;" horiz-adv-x="1126" d="M969 274v363q0 49 -5.5 87t-20.5 67.5t-40.5 53t-64.5 46.5q129 86 129 250q0 86 -30 148.5t-81 103.5t-119.5 60.5t-144.5 19.5q-186 0 -289.5 -105.5t-103.5 -292.5v-1075h104v1075q0 135 64.5 220t212.5 85q145 0 213 -65q35 -31 53 -77t18 -97q0 -94 -54 -151.5 t-146 -57.5h-80v-92h100q86 0 133 -47q27 -25 37 -58t10 -82v-366q0 -104 -57 -150q-29 -23 -56.5 -34t-76.5 -11h-90v-92h110q66 0 110 16.5t85 53.5q37 35 58.5 86.5t21.5 117.5z" />
<glyph unicode="&#xe0;" horiz-adv-x="1073" d="M883 0v676q0 156 -93.5 239.5t-289.5 83.5q-121 0 -203 -31.5t-145 -119.5l75 -66q47 68 107.5 96.5t165.5 28.5q152 0 215 -61.5t63 -179.5v-111h-319q-162 0 -253 -74.5t-91 -210.5q0 -55 18.5 -106t52.5 -86q47 -49 114 -69.5t177 -20.5q104 0 171 23.5t130 86.5v-98 h105zM778 344q0 -137 -55 -188q-53 -51 -115.5 -63.5t-130.5 -12.5q-135 0 -196.5 47t-61.5 145q0 199 252 199h307v-127zM608 1208l-198 301h-138l217 -301h119z" />
<glyph unicode="&#xe1;" horiz-adv-x="1073" d="M883 0v676q0 156 -93.5 239.5t-289.5 83.5q-121 0 -203 -31.5t-145 -119.5l75 -66q47 68 107.5 96.5t165.5 28.5q152 0 215 -61.5t63 -179.5v-111h-319q-162 0 -253 -74.5t-91 -210.5q0 -55 18.5 -106t52.5 -86q47 -49 114 -69.5t177 -20.5q104 0 171 23.5t130 86.5v-98 h105zM778 344q0 -137 -55 -188q-53 -51 -115.5 -63.5t-130.5 -12.5q-135 0 -196.5 47t-61.5 145q0 199 252 199h307v-127zM752 1509h-138l-198 -301h119z" />
<glyph unicode="&#xe2;" horiz-adv-x="1073" d="M883 0v676q0 156 -93.5 239.5t-289.5 83.5q-121 0 -203 -31.5t-145 -119.5l75 -66q47 68 107.5 96.5t165.5 28.5q152 0 215 -61.5t63 -179.5v-111h-319q-162 0 -253 -74.5t-91 -210.5q0 -55 18.5 -106t52.5 -86q47 -49 114 -69.5t177 -20.5q104 0 171 23.5t130 86.5v-98 h105zM778 344q0 -137 -55 -188q-53 -51 -115.5 -63.5t-130.5 -12.5q-135 0 -196.5 47t-61.5 145q0 199 252 199h307v-127zM819 1208l-252 301h-110l-252 -301h117l190 224l190 -224h117z" />
<glyph unicode="&#xe3;" horiz-adv-x="1073" d="M883 0v676q0 156 -93.5 239.5t-289.5 83.5q-121 0 -203 -31.5t-145 -119.5l75 -66q47 68 107.5 96.5t165.5 28.5q152 0 215 -61.5t63 -179.5v-111h-319q-162 0 -253 -74.5t-91 -210.5q0 -55 18.5 -106t52.5 -86q47 -49 114 -69.5t177 -20.5q104 0 171 23.5t130 86.5v-98 h105zM778 344q0 -137 -55 -188q-53 -51 -115.5 -63.5t-130.5 -12.5q-135 0 -196.5 47t-61.5 145q0 199 252 199h307v-127zM817 1337l-61 60q-47 -47 -73 -57.5t-48 -10.5q-31 0 -56.5 11.5t-58.5 31.5q-37 23 -66.5 36t-74.5 13q-16 0 -32.5 -2t-38 -11t-49.5 -29.5 t-62 -55.5l61 -59q47 47 71.5 57t49.5 10q31 0 58.5 -13t56.5 -30q35 -20 66.5 -34.5t74.5 -14.5q14 0 30.5 2t39 11.5t50 29.5t62.5 55z" />
<glyph unicode="&#xe4;" horiz-adv-x="1073" d="M883 0v676q0 156 -93.5 239.5t-289.5 83.5q-121 0 -203 -31.5t-145 -119.5l75 -66q47 68 107.5 96.5t165.5 28.5q152 0 215 -61.5t63 -179.5v-111h-319q-162 0 -253 -74.5t-91 -210.5q0 -55 18.5 -106t52.5 -86q47 -49 114 -69.5t177 -20.5q104 0 171 23.5t130 86.5v-98 h105zM778 344q0 -137 -55 -188q-53 -51 -115.5 -63.5t-130.5 -12.5q-135 0 -196.5 47t-61.5 145q0 199 252 199h307v-127zM784 1229v157h-118v-157h118zM358 1229v157h-118v-157h118z" />
<glyph unicode="&#xe5;" horiz-adv-x="1073" d="M883 0v676q0 156 -93.5 239.5t-289.5 83.5q-121 0 -203 -31.5t-145 -119.5l75 -66q47 68 107.5 96.5t165.5 28.5q152 0 215 -61.5t63 -179.5v-111h-319q-162 0 -253 -74.5t-91 -210.5q0 -55 18.5 -106t52.5 -86q47 -49 114 -69.5t177 -20.5q104 0 171 23.5t130 86.5v-98 h105zM778 344q0 -137 -55 -188q-53 -51 -115.5 -63.5t-130.5 -12.5q-135 0 -196.5 47t-61.5 145q0 199 252 199h307v-127zM745 1386q0 49 -18 91.5t-50 74t-74 50t-91 18.5t-91 -18.5t-74 -50t-50 -73.5t-18 -92q0 -49 18 -91t50 -74.5t74 -51t91 -18.5t91 18.5t74 51 t50 74.5t18 91zM662 1386q0 -61 -44.5 -105t-105.5 -44t-105.5 44t-44.5 105t44.5 104.5t105.5 43.5t105.5 -43.5t44.5 -104.5z" />
<glyph unicode="&#xe6;" horiz-adv-x="1708" d="M1569 471v47q0 227 -104.5 354t-290.5 127q-106 0 -187.5 -44t-132.5 -130q-76 174 -354 174q-121 0 -203 -31.5t-145 -119.5l75 -66q47 68 107.5 96.5t165.5 28.5q152 0 215 -61.5t63 -179.5v-111h-319q-162 0 -253 -74.5t-91 -210.5q0 -55 18.5 -106t52.5 -86 q47 -49 114 -69.5t177 -20.5q137 0 221 42t146 142q102 -184 352 -184q123 0 203 37.5t155 113.5l-77 62q-63 -63 -124 -91t-149 -28q-158 0 -239.5 100.5t-81.5 288.5h686zM1464 555h-581q2 35 4 60.5t6 45t9 39t16 41.5q33 78 101 122t155 44q86 0 154.5 -44t101.5 -122 q8 -23 14 -42t10 -38.5t6 -45t4 -60.5zM778 344q0 -137 -55 -188q-53 -51 -115.5 -63.5t-130.5 -12.5q-135 0 -196.5 47t-61.5 145q0 199 252 199h307v-127z" />
<glyph unicode="&#xe7;" horiz-adv-x="1019" d="M901 139l-72 66q-31 -35 -60.5 -59.5t-59 -39t-62.5 -20.5t-72 -6q-84 0 -150.5 32.5t-111.5 98.5q-37 53 -52 117.5t-15 165.5q0 100 15 164.5t52 117.5q45 66 112 98.5t150 32.5q78 0 134.5 -27.5t119.5 -97.5l72 66q-41 43 -78 72.5t-74.5 47t-79.5 24.5t-94 7 q-100 0 -181 -34.5t-137 -100t-86 -160t-30 -210.5q0 -117 30 -211.5t86 -160t137 -100t181 -34.5q51 0 93.5 7t80 24.5t74.5 47t78 72.5zM631 -143h-113l-147 -308h129z" />
<glyph unicode="&#xe8;" horiz-adv-x="1071" d="M932 471v47q0 227 -104.5 354t-290.5 127t-291 -133t-105 -372q0 -248 107.5 -377t312.5 -129q61 0 110.5 9t91.5 28.5t80 48t75 65.5l-78 62q-63 -63 -124 -91t-149 -28q-158 0 -239.5 100.5t-81.5 288.5h686zM827 555h-581q2 35 4 60.5t6 45t9 39t16 41.5 q33 78 101.5 122t154.5 44t154.5 -44t101.5 -122q8 -23 14 -42t10 -38.5t6 -45t4 -60.5zM637 1208l-198 301h-138l217 -301h119z" />
<glyph unicode="&#xe9;" horiz-adv-x="1071" d="M932 471v47q0 227 -104.5 354t-290.5 127t-291 -133t-105 -372q0 -248 107.5 -377t312.5 -129q61 0 110.5 9t91.5 28.5t80 48t75 65.5l-78 62q-63 -63 -124 -91t-149 -28q-158 0 -239.5 100.5t-81.5 288.5h686zM827 555h-581q2 35 4 60.5t6 45t9 39t16 41.5 q33 78 101.5 122t154.5 44t154.5 -44t101.5 -122q8 -23 14 -42t10 -38.5t6 -45t4 -60.5zM781 1509h-138l-198 -301h119z" />
<glyph unicode="&#xea;" horiz-adv-x="1071" d="M932 471v47q0 227 -104.5 354t-290.5 127t-291 -133t-105 -372q0 -248 107.5 -377t312.5 -129q61 0 110.5 9t91.5 28.5t80 48t75 65.5l-78 62q-63 -63 -124 -91t-149 -28q-158 0 -239.5 100.5t-81.5 288.5h686zM827 555h-581q2 35 4 60.5t6 45t9 39t16 41.5 q33 78 101.5 122t154.5 44t154.5 -44t101.5 -122q8 -23 14 -42t10 -38.5t6 -45t4 -60.5zM848 1208l-252 301h-110l-252 -301h117l190 224l190 -224h117z" />
<glyph unicode="&#xeb;" horiz-adv-x="1071" d="M932 471v47q0 227 -104.5 354t-290.5 127t-291 -133t-105 -372q0 -248 107.5 -377t312.5 -129q61 0 110.5 9t91.5 28.5t80 48t75 65.5l-78 62q-63 -63 -124 -91t-149 -28q-158 0 -239.5 100.5t-81.5 288.5h686zM827 555h-581q2 35 4 60.5t6 45t9 39t16 41.5 q33 78 101.5 122t154.5 44t154.5 -44t101.5 -122q8 -23 14 -42t10 -38.5t6 -45t4 -60.5zM813 1229v157h-118v-157h118zM387 1229v157h-118v-157h118z" />
<glyph unicode="&#xec;" horiz-adv-x="501" d="M303 0v987h-104v-987h104zM536 1208l-198 301h-138l217 -301h119z" />
<glyph unicode="&#xed;" horiz-adv-x="501" d="M303 0v987h-104v-987h104zM537 1509h-138l-198 -301h119z" />
<glyph unicode="&#xee;" horiz-adv-x="501" d="M303 0v987h-104v-987h104zM815 1208l-252 301h-110l-252 -301h117l190 224l190 -224h117z" />
<glyph unicode="&#xef;" horiz-adv-x="501" d="M303 0v987h-104v-987h104zM745 1229v157h-118v-157h118zM319 1229v157h-118v-157h118z" />
<glyph unicode="&#xf0;" horiz-adv-x="1077" d="M936 494q0 63 -4 115.5t-17.5 102.5t-39 105t-66.5 127l-147 252h116v78h-162l-106 184h-109l109 -184h-195v-78h240l137 -231q-31 18 -72.5 26t-80.5 8q-166 0 -275 -108q-78 -78 -100.5 -184.5t-22.5 -212.5t22.5 -213t100.5 -185q109 -109 275 -108q84 0 152.5 27.5 t121.5 80.5q78 78 100.5 185t22.5 213zM831 494q0 -43 -2 -88.5t-11 -89.5t-26.5 -82.5t-48.5 -69.5q-41 -41 -93 -62.5t-111 -21.5q-121 0 -205 84q-31 31 -48.5 69.5t-26.5 82.5t-11 89.5t-2 88.5t2 88t11 89t26.5 83t48.5 69q84 84 205 84q59 0 111 -21.5t93 -62.5 q31 -31 48.5 -69.5t26.5 -82.5t11 -89t2 -88z" />
<glyph unicode="&#xf1;" horiz-adv-x="1144" d="M958 0v631q0 176 -102 274q-98 94 -262 94q-180 0 -291 -129v117h-104v-987h104v612q0 141 73 218t206 77t202.5 -75.5t69.5 -219.5v-612h104zM887 1337l-61 60q-47 -47 -73 -57.5t-48 -10.5q-31 0 -56.5 11.5t-58.5 31.5q-37 23 -66.5 36t-74.5 13q-16 0 -32.5 -2 t-38 -11t-49.5 -29.5t-62 -55.5l61 -59q47 47 71.5 57t49.5 10q31 0 58.5 -13t56.5 -30q35 -20 66.5 -34.5t74.5 -14.5q14 0 30.5 2t39 11.5t50 29.5t62.5 55z" />
<glyph unicode="&#xf2;" horiz-adv-x="1077" d="M608 1208l-198 301h-138l217 -301h119zM1067 494q0 106 -22.5 212.5t-100.5 184.5q-53 53 -121.5 80.5t-152.5 27.5q-166 0 -275 -108q-78 -78 -100.5 -184.5t-22.5 -212.5t22.5 -213t100.5 -185q109 -109 275 -108q84 0 152.5 27.5t121.5 80.5q78 78 100.5 185t22.5 213 zM962 494q0 -43 -2 -88.5t-11 -89.5t-26.5 -82.5t-48.5 -69.5q-41 -41 -93 -62.5t-111 -21.5q-121 0 -205 84q-31 31 -48.5 69.5t-26.5 82.5t-11 89.5t-2 88.5t2 88t11 89t26.5 83t48.5 69q84 84 205 84q59 0 111 -21.5t93 -62.5q31 -31 48.5 -69.5t26.5 -82.5t11 -89t2 -88 z" />
<glyph unicode="&#xf3;" horiz-adv-x="1077" d="M936 494q0 106 -22.5 212.5t-100.5 184.5q-53 53 -121.5 80.5t-152.5 27.5q-166 0 -275 -108q-78 -78 -100.5 -184.5t-22.5 -212.5t22.5 -213t100.5 -185q109 -109 275 -108q84 0 152.5 27.5t121.5 80.5q78 78 100.5 185t22.5 213zM831 494q0 -43 -2 -88.5t-11 -89.5 t-26.5 -82.5t-48.5 -69.5q-41 -41 -93 -62.5t-111 -21.5q-121 0 -205 84q-31 31 -48.5 69.5t-26.5 82.5t-11 89.5t-2 88.5t2 88t11 89t26.5 83t48.5 69q84 84 205 84q59 0 111 -21.5t93 -62.5q31 -31 48.5 -69.5t26.5 -82.5t11 -89t2 -88zM779 1509h-138l-198 -301h119z" />
<glyph unicode="&#xf4;" horiz-adv-x="1077" d="M936 494q0 106 -22.5 212.5t-100.5 184.5q-53 53 -121.5 80.5t-152.5 27.5q-166 0 -275 -108q-78 -78 -100.5 -184.5t-22.5 -212.5t22.5 -213t100.5 -185q109 -109 275 -108q84 0 152.5 27.5t121.5 80.5q78 78 100.5 185t22.5 213zM831 494q0 -43 -2 -88.5t-11 -89.5 t-26.5 -82.5t-48.5 -69.5q-41 -41 -93 -62.5t-111 -21.5q-121 0 -205 84q-31 31 -48.5 69.5t-26.5 82.5t-11 89.5t-2 88.5t2 88t11 89t26.5 83t48.5 69q84 84 205 84q59 0 111 -21.5t93 -62.5q31 -31 48.5 -69.5t26.5 -82.5t11 -89t2 -88zM846 1208l-252 301h-110l-252 -301 h117l190 224l190 -224h117z" />
<glyph unicode="&#xf5;" horiz-adv-x="1077" d="M936 494q0 106 -22.5 212.5t-100.5 184.5q-53 53 -121.5 80.5t-152.5 27.5q-166 0 -275 -108q-78 -78 -100.5 -184.5t-22.5 -212.5t22.5 -213t100.5 -185q109 -109 275 -108q84 0 152.5 27.5t121.5 80.5q78 78 100.5 185t22.5 213zM831 494q0 -43 -2 -88.5t-11 -89.5 t-26.5 -82.5t-48.5 -69.5q-41 -41 -93 -62.5t-111 -21.5q-121 0 -205 84q-31 31 -48.5 69.5t-26.5 82.5t-11 89.5t-2 88.5t2 88t11 89t26.5 83t48.5 69q84 84 205 84q59 0 111 -21.5t93 -62.5q31 -31 48.5 -69.5t26.5 -82.5t11 -89t2 -88zM844 1337l-61 60 q-47 -47 -73 -57.5t-48 -10.5q-31 0 -56.5 11.5t-58.5 31.5q-37 23 -66.5 36t-74.5 13q-16 0 -32.5 -2t-38 -11t-49.5 -29.5t-62 -55.5l61 -59q47 47 71.5 57t49.5 10q31 0 58.5 -13t56.5 -30q35 -20 66.5 -34.5t74.5 -14.5q14 0 30.5 2t39 11.5t50 29.5t62.5 55z" />
<glyph unicode="&#xf6;" horiz-adv-x="1077" d="M936 494q0 106 -22.5 212.5t-100.5 184.5q-53 53 -121.5 80.5t-152.5 27.5q-166 0 -275 -108q-78 -78 -100.5 -184.5t-22.5 -212.5t22.5 -213t100.5 -185q109 -109 275 -108q84 0 152.5 27.5t121.5 80.5q78 78 100.5 185t22.5 213zM831 494q0 -43 -2 -88.5t-11 -89.5 t-26.5 -82.5t-48.5 -69.5q-41 -41 -93 -62.5t-111 -21.5q-121 0 -205 84q-31 31 -48.5 69.5t-26.5 82.5t-11 89.5t-2 88.5t2 88t11 89t26.5 83t48.5 69q84 84 205 84q59 0 111 -21.5t93 -62.5q31 -31 48.5 -69.5t26.5 -82.5t11 -89t2 -88zM811 1229v157h-118v-157h118z M385 1229v157h-118v-157h118z" />
<glyph unicode="&#xf7;" d="M598 813v143h-143v-143h143zM944 492v96h-835v-96h835zM598 123v143h-143v-143h143z" />
<glyph unicode="&#xf8;" horiz-adv-x="1077" d="M936 494q0 104 -21.5 208.5t-95.5 182.5l115 192h-98l-82 -139q-92 61 -215 61q-166 0 -275 -108q-78 -78 -100.5 -184.5t-22.5 -212.5q0 -104 21.5 -209t95.5 -183l-115 -192h99l82 137q94 -59 215 -59q84 0 152.5 27.5t121.5 80.5q78 78 100.5 185t22.5 213zM831 494 q0 -43 -2 -88.5t-11 -89.5t-26.5 -82.5t-48.5 -69.5q-41 -41 -93 -62.5t-111 -21.5q-92 0 -166 51l393 666q47 -63 56 -144t9 -159zM705 856l-394 -666q-47 63 -56 144.5t-9 159.5q0 43 2 88t11 89t26.5 83t48.5 69q84 84 205 84q92 0 166 -51z" />
<glyph unicode="&#xf9;" horiz-adv-x="1144" d="M946 0v987h-104v-612q0 -141 -73 -218t-206 -77t-202.5 75.5t-69.5 219.5v612h-105v-631q0 -176 103 -274q98 -94 262 -94q180 0 291 129v-117h104zM661 1208l-198 301h-138l217 -301h119z" />
<glyph unicode="&#xfa;" horiz-adv-x="1144" d="M946 0v987h-104v-612q0 -141 -73 -218t-206 -77t-202.5 75.5t-69.5 219.5v612h-105v-631q0 -176 103 -274q98 -94 262 -94q180 0 291 129v-117h104zM805 1509h-138l-198 -301h119z" />
<glyph unicode="&#xfb;" horiz-adv-x="1144" d="M946 0v987h-104v-612q0 -141 -73 -218t-206 -77t-202.5 75.5t-69.5 219.5v612h-105v-631q0 -176 103 -274q98 -94 262 -94q180 0 291 129v-117h104zM872 1208l-252 301h-110l-252 -301h117l190 224l190 -224h117z" />
<glyph unicode="&#xfc;" horiz-adv-x="1144" d="M946 0v987h-104v-612q0 -141 -73 -218t-206 -77t-202.5 75.5t-69.5 219.5v612h-105v-631q0 -176 103 -274q98 -94 262 -94q180 0 291 129v-117h104zM837 1229v157h-118v-157h118zM411 1229v157h-118v-157h118z" />
<glyph unicode="&#xfd;" horiz-adv-x="880" d="M852 987h-115l-297 -864l-297 864h-114l360 -987l-80 -219q-14 -37 -27.5 -62.5t-34 -42t-48 -23.5t-70.5 -7h-39v-92h49q49 0 99.5 14t87.5 49q39 35 67 115zM682 1509h-138l-198 -301h119z" />
<glyph unicode="&#xfe;" horiz-adv-x="1105" d="M965 494q0 117 -26 230.5t-101 188.5q-39 39 -101.5 62.5t-140.5 23.5q-84 0 -155.5 -26.5t-137.5 -112.5v598h-104v-1929h104v598q66 -86 137.5 -112.5t155.5 -26.5q78 0 140.5 23.5t101.5 62.5q76 76 101.5 189.5t25.5 230.5zM860 494q0 -78 -9 -152t-39 -132t-85 -94 t-145 -36t-145.5 36t-85 94t-39 132t-9.5 152q0 76 9.5 150.5t39 133t85 94t145.5 35.5t145 -35.5t85 -94t39 -133t9 -150.5z" />
<glyph unicode="&#xff;" horiz-adv-x="880" d="M852 987h-115l-297 -864l-297 864h-114l360 -987l-80 -219q-14 -37 -27.5 -62.5t-34 -42t-48 -23.5t-70.5 -7h-39v-92h49q49 0 99.5 14t87.5 49q39 35 67 115zM714 1229v157h-118v-157h118zM288 1229v157h-118v-157h118z" />
<glyph unicode="&#x131;" horiz-adv-x="501" d="M303 0v987h-104v-987h104z" />
<glyph unicode="&#x152;" horiz-adv-x="2041" d="M1927 0v96h-762q0 150 1 298.5t1 297.5h641v86h-641q0 147 -1 291.5t-1 292.5h756v96h-864v-174q-150 186 -389 186q-104 0 -198.5 -38.5t-166.5 -110.5q-49 -49 -76.5 -102.5t-41 -121t-15.5 -156.5t-2 -212t2 -213t15.5 -157.5t41 -120t76.5 -101.5q72 -72 166 -110.5 t199 -38.5q113 0 214 47t175 139v-174h870zM1057 729q0 -117 -3 -200t-14.5 -143t-34 -104t-61.5 -83q-55 -55 -127 -84t-149 -29q-78 0 -150 28.5t-127 84.5q-39 39 -61.5 83t-33.5 104t-14 143t-3 200t3 200t14 143.5t33.5 104.5t61.5 83q55 55 127 83.5t150 28.5 t149.5 -28.5t126.5 -83.5q39 -39 61.5 -83t34 -104.5t14.5 -143.5t3 -200z" />
<glyph unicode="&#x153;" horiz-adv-x="1761" d="M1622 471v47q0 227 -104.5 354t-290.5 127q-119 0 -206 -55t-134 -160q-47 104 -139.5 159.5t-208.5 55.5q-166 0 -275 -108q-78 -78 -100.5 -184.5t-22.5 -212.5t22.5 -213t100.5 -185q109 -109 275 -108q115 0 208 55t140 160q100 -215 364 -215q61 0 110.5 9 t91.5 28.5t80 48t75 65.5l-78 62q-63 -63 -123.5 -91t-149.5 -28q-158 0 -239.5 100.5t-81.5 288.5h686zM1518 555h-582q2 35 4 60.5t6 45t9.5 39t15.5 41.5q33 78 101.5 122t154.5 44t154.5 -44t101.5 -122q8 -23 14 -42t10 -38.5t6.5 -45t4.5 -60.5zM831 494 q0 -43 -2 -88.5t-11 -89.5t-26.5 -82.5t-48.5 -69.5q-41 -41 -93 -62.5t-111 -21.5q-121 0 -205 84q-31 31 -48.5 69.5t-26.5 82.5t-11 89.5t-2 88.5t2 88t11 89t26.5 83t48.5 69q84 84 205 84q59 0 111 -21.5t93 -62.5q31 -31 48.5 -69.5t26.5 -82.5t11 -89t2 -88z" />
<glyph unicode="&#x178;" horiz-adv-x="1011" d="M991 1458h-119l-362 -737l-371 737h-119l431 -854v-604h110v604zM780 1618v157h-118v-157h118zM354 1618v157h-118v-157h118z" />
<glyph unicode="&#x2c6;" horiz-adv-x="1024" d="M819 1208l-252 301h-110l-252 -301h117l190 224l190 -224h117z" />
<glyph unicode="&#x2da;" horiz-adv-x="1024" d="M745 1386q0 49 -18 91.5t-50 74t-74 50t-91 18.5t-91 -18.5t-74 -50t-50 -73.5t-18 -92q0 -49 18 -91t50 -74.5t74 -51t91 -18.5t91 18.5t74 51t50 74.5t18 91zM662 1386q0 -61 -44.5 -105t-105.5 -44t-105.5 44t-44.5 105t44.5 104.5t105.5 43.5t105.5 -43.5 t44.5 -104.5z" />
<glyph unicode="&#x2dc;" horiz-adv-x="1024" d="M817 1337l-61 60q-47 -47 -73 -57.5t-48 -10.5q-31 0 -56.5 11.5t-58.5 31.5q-37 23 -66.5 36t-74.5 13q-16 0 -32.5 -2t-38 -11t-49.5 -29.5t-62 -55.5l61 -59q47 47 71.5 57t49.5 10q31 0 58.5 -13t56.5 -30q35 -20 66.5 -34.5t74.5 -14.5q14 0 30.5 2t39 11.5t50 29.5 t62.5 55z" />
<glyph unicode="&#x2000;" horiz-adv-x="997" />
<glyph unicode="&#x2001;" horiz-adv-x="1996" />
<glyph unicode="&#x2002;" horiz-adv-x="997" />
<glyph unicode="&#x2003;" horiz-adv-x="1996" />
<glyph unicode="&#x2004;" horiz-adv-x="665" />
<glyph unicode="&#x2005;" horiz-adv-x="497" />
<glyph unicode="&#x2006;" horiz-adv-x="331" />
<glyph unicode="&#x2007;" horiz-adv-x="331" />
<glyph unicode="&#x2008;" horiz-adv-x="247" />
<glyph unicode="&#x2009;" horiz-adv-x="399" />
<glyph unicode="&#x200a;" horiz-adv-x="110" />
<glyph unicode="&#x2010;" horiz-adv-x="872" d="M705 492v96h-537v-96h537z" />
<glyph unicode="&#x2011;" horiz-adv-x="872" d="M705 492v96h-537v-96h537z" />
<glyph unicode="&#x2012;" horiz-adv-x="872" d="M705 492v96h-537v-96h537z" />
<glyph unicode="&#x2013;" d="M944 492v96h-835v-96h835z" />
<glyph unicode="&#x2014;" horiz-adv-x="1787" d="M1620 492v96h-1452v-96h1452z" />
<glyph unicode="&#x2018;" horiz-adv-x="532" d="M338 1315v287l-143 -144v-143h143z" />
<glyph unicode="&#x2019;" horiz-adv-x="532" d="M338 1315v143h-143v-287z" />
<glyph unicode="&#x201a;" horiz-adv-x="532" d="M338 0v143h-143v-286z" />
<glyph unicode="&#x201c;" horiz-adv-x="851" d="M657 1315v287l-143 -144v-143h143zM338 1315v287l-143 -144v-143h143z" />
<glyph unicode="&#x201d;" horiz-adv-x="851" d="M657 1315v143h-143v-287zM338 1315v143h-143v-287z" />
<glyph unicode="&#x201e;" horiz-adv-x="851" d="M657 0v143h-143v-286zM338 0v143h-143v-286z" />
<glyph unicode="&#x2022;" horiz-adv-x="1118" d="M893 684q0 70 -26.5 130t-71.5 105.5t-105.5 72t-130.5 26.5t-130 -26.5t-105 -72t-72 -105.5t-27 -130t27 -130t72 -105.5t105 -72t130 -26.5t130.5 26.5t105.5 72t71.5 105.5t26.5 130z" />
<glyph unicode="&#x2026;" horiz-adv-x="1482" d="M1288 0v152h-151v-152h151zM817 0v152h-151v-152h151zM346 0v152h-151v-152h151z" />
<glyph unicode="&#x202f;" horiz-adv-x="399" />
<glyph unicode="&#x2039;" horiz-adv-x="655" d="M487 141v135l-266 267l266 266v135l-401 -401z" />
<glyph unicode="&#x203a;" horiz-adv-x="655" d="M569 543l-401 401v-135l266 -266l-266 -267v-135z" />
<glyph unicode="&#x205f;" horiz-adv-x="497" />
<glyph unicode="&#x2122;" horiz-adv-x="1656" d="M1542 584v874h-90l-272 -553l-273 553h-90v-874h90v671l226 -446h94l225 446v-671h90zM655 1374v84h-589v-84h249v-790h91v790h249z" />
<glyph unicode="&#xe000;" horiz-adv-x="985" d="M0 985h985v-985h-985v985z" />
<glyph unicode="&#xfb01;" horiz-adv-x="1120" d="M934 1329v129h-129v-129h129zM922 0v987h-105v-987h105zM557 909v78h-223v215q0 78 37 121t114 43h72v92h-90q-117 0 -177.5 -72.5t-60.5 -185.5v-213h-135v-78h135v-909h105v909h223z" />
<glyph unicode="&#xfb02;" horiz-adv-x="1200" d="M1135 0v92h-72q-88 0 -120 41t-32 125v1200h-104v-1202q0 -117 58.5 -186.5t178.5 -69.5h91zM557 909v78h-223v215q0 78 37 121t114 43h72v92h-90q-117 0 -177.5 -72.5t-60.5 -185.5v-213h-135v-78h135v-909h105v909h223z" />
<glyph unicode="&#xfb03;" horiz-adv-x="1746" d="M1560 1329v129h-129v-129h129zM1548 0v987h-104v-987h104zM1180 909v78h-223v215q0 78 37 121t114 43h72v92h-90q-117 0 -177.5 -72.5t-60.5 -185.5v-213h-135v-78h135v-909h105v909h223zM557 909v78h-223v215q0 78 37 121t114 43h72v92h-90q-117 0 -177.5 -72.5 t-60.5 -185.5v-213h-135v-78h135v-909h105v909h223z" />
<glyph unicode="&#xfb04;" horiz-adv-x="1832" d="M1767 0v92h-71q-88 0 -120 41t-32 125v1200h-104v-1202q0 -117 58 -186.5t179 -69.5h90zM1180 909v78h-223v215q0 78 37 121t114 43h72v92h-90q-117 0 -177.5 -72.5t-60.5 -185.5v-213h-135v-78h135v-909h105v909h223zM557 909v78h-223v215q0 78 37 121t114 43h72v92h-90 q-117 0 -177.5 -72.5t-60.5 -185.5v-213h-135v-78h135v-909h105v909h223z" />
</font>
</defs>
</svg>
